HIERARCHY
ROOT root
{
	OFFSET 0.00 0.00 0.00
	CHANNELS 6 Xposition Yposition Zposition Zrotation Xrotation Yrotation
	JOINT lowerback
	{
		OFFSET 0 0 0
		CHANNELS 6 Xposition Yposition Zposition Zrotation Xrotation Yrotation
		JOINT upperback
		{
			OFFSET -0.214371 12.3768 -1.12219
			CHANNELS 6 Xposition Yposition Zposition Zrotation Xrotation Yrotation
			JOINT thorax
			{
				OFFSET -0.00137213 12.3873 0.296195
				CHANNELS 6 Xposition Yposition Zposition Zrotation Xrotation Yrotation
				JOINT lowerneck
				{
					OFFSET 0.0883157 12.5016 0.82912
					CHANNELS 6 Xposition Yposition Zposition Zrotation Xrotation Yrotation
					JOINT upperneck
					{
						OFFSET -1 10.1794 0.943522
						CHANNELS 6 Xposition Yposition Zposition Zrotation Xrotation Yrotation
						JOINT head
						{
							OFFSET 0.667525 10.2797 -1.57149
							CHANNELS 6 Xposition Yposition Zposition Zrotation Xrotation Yrotation
							End Site
							{
								OFFSET 0 0 0
							}
						}
					}
				}
				JOINT lclavicle
				{
					OFFSET 0.0883157 12.5016 0.82912
					CHANNELS 6 Xposition Yposition Zposition Zrotation Xrotation Yrotation
					JOINT lhumerus
					{
						OFFSET 20.61 4.45006 1.43784
						CHANNELS 6 Xposition Yposition Zposition Zrotation Xrotation Yrotation
						JOINT lradius
						{
							OFFSET 0 -30.3438 0
							CHANNELS 6 Xposition Yposition Zposition Zrotation Xrotation Yrotation
							JOINT lwrist
							{
								OFFSET 0 -18.964 0
								CHANNELS 6 Xposition Yposition Zposition Zrotation Xrotation Yrotation
								JOINT lhand
								{
									OFFSET 0 -9.48199 0
									CHANNELS 6 Xposition Yposition Zposition Zrotation Xrotation Yrotation
									JOINT lfingers
									{
										OFFSET 0 -3.17138 0
										CHANNELS 6 Xposition Yposition Zposition Zrotation Xrotation Yrotation
										End Site
										{
											OFFSET 0 -2.55685 0
										}
									}
								}
								JOINT lthumb
								{
									OFFSET 0 -9.48199 0
									CHANNELS 6 Xposition Yposition Zposition Zrotation Xrotation Yrotation
									End Site
									{
										OFFSET 0 -3.67114 0
									}
								}
							}
						}
					}
				}
				JOINT rclavicle
				{
					OFFSET 0.0883157 12.5016 0.82912
					CHANNELS 6 Xposition Yposition Zposition Zrotation Xrotation Yrotation
					JOINT rhumerus
					{
						OFFSET -20.61 4.45 1.44
						CHANNELS 6 Xposition Yposition Zposition Zrotation Xrotation Yrotation
						JOINT rradius
						{
							OFFSET 0 -29.5102 0
							CHANNELS 6 Xposition Yposition Zposition Zrotation Xrotation Yrotation
							JOINT rwrist
							{
								OFFSET 0 -19.2342 0
								CHANNELS 6 Xposition Yposition Zposition Zrotation Xrotation Yrotation
								JOINT rhand
								{
									OFFSET 0 -9.61712 0
									CHANNELS 6 Xposition Yposition Zposition Zrotation Xrotation Yrotation
									JOINT rfingers
									{
										OFFSET 0 -3.29215 0
										CHANNELS 6 Xposition Yposition Zposition Zrotation Xrotation Yrotation
										End Site
										{
											OFFSET 0 -2.557 0
										}
									}
								}
								JOINT rthumb
								{
									OFFSET 0 -9.61712 0
									CHANNELS 6 Xposition Yposition Zposition Zrotation Xrotation Yrotation
									End Site
									{
										OFFSET 0 -3.671 0
									}
								}
							}
						}
					}
				}
			}
		}
	}
	JOINT rfemur
	{
		OFFSET -8.46272 -9.62775 4.76248
		CHANNELS 6 Xposition Yposition Zposition Zrotation Xrotation Yrotation
		JOINT rtibia
		{
			OFFSET 1.00552e-005 -38.0331 0
			CHANNELS 6 Xposition Yposition Zposition Zrotation Xrotation Yrotation
			JOINT rfoot
			{
				OFFSET 1.14428e-005 -43.2815 0
				CHANNELS 6 Xposition Yposition Zposition Zrotation Xrotation Yrotation
				JOINT rtoes
				{
					OFFSET 0 -14.1868 -3.08763
					CHANNELS 6 Xposition Yposition Zposition Zrotation Xrotation Yrotation
					End Site
					{
						OFFSET 0 -7.27332 0
					}
				}
			}
		}
	}
	JOINT lfemur
	{
		OFFSET 9.10607 -9.62778 4.76249
		CHANNELS 6 Xposition Yposition Zposition Zrotation Xrotation Yrotation
		JOINT ltibia
		{
			OFFSET -1.01399e-005 -38.3535 0
			CHANNELS 6 Xposition Yposition Zposition Zrotation Xrotation Yrotation
			JOINT lfoot
			{
				OFFSET -1.12937e-005 -42.7176 0
				CHANNELS 6 Xposition Yposition Zposition Zrotation Xrotation Yrotation
				JOINT ltoes
				{
					OFFSET 0 -13.9965 -2.83857
					CHANNELS 6 Xposition Yposition Zposition Zrotation Xrotation Yrotation
					End Site
					{
						OFFSET 0 -7.16348 0
					}
				}
			}
		}
	}
}
MOTION
Frames: 9
Frame Time: 0.00833333
8.77692	87.9986	64.0297	0.202537	11.1924	-2.87114	0 0 0 5.42375	16.2862	-3.79048	-0.214371 12.3768 -1.12219 -0.814069	15.2458	-4.89493	-0.00137213 12.3873 0.296195 -3.97641	6.95341	-2.05824	0.0883157 12.5016 0.82912 -0.197662	8.34376	0.311845	-1 10.1794 0.943522 4.4225	-7.30784	0.779487	0.667525 10.2797 -1.57149 1.4491	-3.94686	0.178082	0.0883157 12.5016 0.82912 -15	0	-0	20.61 4.45006 1.43784 38.3332	-62.8048	177.401	0 -30.3438 0 -0	64.826	-0	0 -18.964 0 7.96133e-016	3.7026e-015	-52.32	0 -9.48199 0 1.22245	4.37968	-2.58917e-014	0 -3.17138 0 -0	7.12502	-0	0 -9.48199 0 25	15	-1.36605e-015	0.0883157 12.5016 0.82912 15	0	-0	-20.61 4.45 1.44 -25.9097	-14.5543	-161.82	0 -29.5102 0 -0	73.3474	-0	0 -19.2342 0 1.22997e-015	-3.96835e-015	124.441	0 -9.61712 0 1.22	4.38	-0	0 -3.29215 0 -0	7.12502	-0	0 -9.61712 0 25	15	-7.97034e-015	-8.46272 -9.62775 4.76248 12.6201	-53.3788	4.81262	1.00552e-005 -38.0331 0 -0	67.3735	-0	1.14428e-005 -43.2815 0 -77.3789	-70.5716	-78.0771	0 -14.1868 -3.08763 -0	-24.182	-0	9.10607 -9.62778 4.76249 15.048	-37.3119	16.6888	-1.01399e-005 -38.3535 0 -180	72.2119	180	-1.12937e-005 -42.7176 0 -38.2794	-82.3788	-38.527	0 -13.9965 -2.83857 -0	-47.4935	-0
8.67685	88.0183	64.3994	-0.0608915	10.6044	-2.73835	0 0 0 5.60662	16.3822	-3.77411	-0.214371 12.3768 -1.12219 -0.765624	15.375	-4.86308	-0.00137213 12.3873 0.296195 -4.03408	7.05196	-2.02615	0.0883157 12.5016 0.82912 -0.289056	8.45629	0.271185	-1 10.1794 0.943522 4.42735	-6.97879	0.70374	0.667525 10.2797 -1.57149 1.47062	-3.8481	0.147041	0.0883157 12.5016 0.82912 -15	0	-0	20.61 4.45006 1.43784 37.8563	-62.7911	176.977	0 -30.3438 0 -0	64.6469	-0	0 -18.964 0 8.02852e-016	3.69388e-015	-52.4241	0 -9.48199 0 1.22245	4.37968	-2.58917e-014	0 -3.17138 0 -0	7.12502	-0	0 -9.48199 0 25	15	-1.36605e-015	0.0883157 12.5016 0.82912 15	0	-0	-20.61 4.45 1.44 -25.9837	-14.2997	-161.859	0 -29.5102 0 -0	73.4889	-0	0 -19.2342 0 1.2254e-015	-3.96168e-015	124.375	0 -9.61712 0 1.22	4.38	-0	0 -3.29215 0 -0	7.12502	-0	0 -9.61712 0 25	15	-7.97034e-015	-8.46272 -9.62775 4.76248 12.5988	-52.3928	4.36731	1.00552e-005 -38.0331 0 -0	67.3581	-0	1.14428e-005 -43.2815 0 -78.6296	-70.5909	-79.261	0 -14.1868 -3.08763 -0	-24.3961	-0	9.10607 -9.62778 4.76249 16.5209	-38.7885	17.4526	-1.01399e-005 -38.3535 0 -180	70.7232	180	-1.12937e-005 -42.7176 0 -41.0064	-82.3244	-41.262	0 -13.9965 -2.83857 -0	-47.2641	-0
8.5811	88.0291	64.7759	-0.314428	10.0055	-2.62711	0 0 0 5.77869	16.4654	-3.75414	-0.214371 12.3768 -1.12219 -0.718164	15.5002	-4.82827	-0.00137213 12.3873 0.296195 -4.08748	7.15389	-1.99318	0.0883157 12.5016 0.82912 -0.378814	8.56541	0.230128	-1 10.1794 0.943522 4.43067	-6.63143	0.626664	0.667525 10.2797 -1.57149 1.49009	-3.73938	0.11527	0.0883157 12.5016 0.82912 -15	0	-0	20.61 4.45006 1.43784 37.3514	-62.7344	176.542	0 -30.3438 0 -0	64.4941	-0	0 -18.964 0 8.09717e-016	3.68494e-015	-52.5307	0 -9.48199 0 1.22245	4.37968	-2.58917e-014	0 -3.17138 0 -0	7.12502	-0	0 -9.48199 0 25	15	-1.36605e-015	0.0883157 12.5016 0.82912 15	0	-0	-20.61 4.45 1.44 -26.0728	-14.048	-161.87	0 -29.5102 0 -0	73.6086	-0	0 -19.2342 0 1.22118e-015	-3.95551e-015	124.314	0 -9.61712 0 1.22	4.38	-0	0 -3.29215 0 -0	7.12502	-0	0 -9.61712 0 25	15	-7.97034e-015	-8.46272 -9.62775 4.76248 12.5697	-51.3974	3.91381	1.00552e-005 -38.0331 0 -0	67.3578	-0	1.14428e-005 -43.2815 0 -79.9162	-70.6527	-80.4756	0 -14.1868 -3.08763 -0	-24.6157	-0	9.10607 -9.62778 4.76249 17.9523	-40.2135	18.2239	-1.01399e-005 -38.3535 0 -180	69.4512	180	-1.12937e-005 -42.7176 0 -43.6697	-82.2187	-43.9346	0 -13.9965 -2.83857 -0	-47.0213	-0
8.49213	88.0308	65.161	-0.557838	9.39752	-2.53866	0 0 0 5.93853	16.5334	-3.73064	-0.214371 12.3768 -1.12219 -0.672895	15.6201	-4.7908	-0.00137213 12.3873 0.296195 -4.13718	7.25908	-1.95956	0.0883157 12.5016 0.82912 -0.46405	8.67094	0.189245	-1 10.1794 0.943522 4.43196	-6.26107	0.549194	0.667525 10.2797 -1.57149 1.50717	-3.62081	0.0832357	0.0883157 12.5016 0.82912 -15	0	-0	20.61 4.45006 1.43784 36.8357	-62.6341	176.106	0 -30.3438 0 -0	64.365	-0	0 -18.964 0 8.16416e-016	3.67619e-015	-52.635	0 -9.48199 0 1.22245	4.37968	-2.58917e-014	0 -3.17138 0 -0	7.12502	-0	0 -9.48199 0 25	15	-1.36605e-015	0.0883157 12.5016 0.82912 15	0	-0	-20.61 4.45 1.44 -26.1751	-13.8028	-161.851	0 -29.5102 0 -0	73.6999	-0	0 -19.2342 0 1.21753e-015	-3.95015e-015	124.261	0 -9.61712 0 1.22	4.38	-0	0 -3.29215 0 -0	7.12502	-0	0 -9.61712 0 25	15	-7.97034e-015	-8.46272 -9.62775 4.76248 12.5347	-50.3924	3.45669	1.00552e-005 -38.0331 0 -0	67.3715	-0	1.14428e-005 -43.2815 0 -81.2432	-70.7538	-81.7263	0 -14.1868 -3.08763 -0	-24.84	-0	9.10607 -9.62778 4.76249 19.3225	-41.5845	18.9852	-1.01399e-005 -38.3535 0 -180	68.3946	180	-1.12937e-005 -42.7176 0 -46.1743	-82.0803	-46.4487	0 -13.9965 -2.83857 -0	-46.7683	-0
8.40551	88.024	65.5554	-0.791122	8.78176	-2.47377	0 0 0 6.08497	16.5836	-3.7037	-0.214371 12.3768 -1.12219 -0.630877	15.7339	-4.751	-0.00137213 12.3873 0.296195 -4.18375	7.36745	-1.92552	0.0883157 12.5016 0.82912 -0.542575	8.77278	0.149149	-1 10.1794 0.943522 4.4306	-5.86398	0.47226	0.667525 10.2797 -1.57149 1.52153	-3.49255	0.0514083	0.0883157 12.5016 0.82912 -15	0	-0	20.61 4.45006 1.43784 36.3259	-62.4904	175.676	0 -30.3438 0 -0	64.2565	-0	0 -18.964 0 8.22601e-016	3.66807e-015	-52.7315	0 -9.48199 0 1.22245	4.37968	-2.58917e-014	0 -3.17138 0 -0	7.12502	-0	0 -9.48199 0 25	15	-1.36605e-015	0.0883157 12.5016 0.82912 15	0	-0	-20.61 4.45 1.44 -26.2886	-13.5663	-161.798	0 -29.5102 0 -0	73.7579	-0	0 -19.2342 0 1.21443e-015	-3.9456e-015	124.216	0 -9.61712 0 1.22	4.38	-0	0 -3.29215 0 -0	7.12502	-0	0 -9.61712 0 25	15	-7.97034e-015	-8.46272 -9.62775 4.76248 12.4965	-49.378	3.00089	1.00552e-005 -38.0331 0 -0	67.3975	-0	1.14428e-005 -43.2815 0 -82.6149	-70.8885	-83.0185	0 -14.1868 -3.08763 -0	-25.0678	-0	9.10607 -9.62778 4.76249 20.6122	-42.8994	19.7181	-1.01399e-005 -38.3535 0 -180	67.5491	180	-1.12937e-005 -42.7176 0 -48.4527	-81.928	-48.7358	0 -13.9965 -2.83857 -0	-46.51	-0
8.32428	88.0076	65.9581	-1.01454	8.15945	-2.43276	0 0 0 6.21714	16.6142	-3.67349	-0.214371 12.3768 -1.12219 -0.592906	15.8405	-4.70922	-0.00137213 12.3873 0.296195 -4.22758	7.47893	-1.89131	0.0883157 12.5016 0.82912 -0.612982	8.87073	0.1105	-1 10.1794 0.943522 4.42591	-5.43751	0.396797	0.667525 10.2797 -1.57149 1.53288	-3.35479	0.0202707	0.0883157 12.5016 0.82912 -15	0	-0	20.61 4.45006 1.43784 35.838	-62.3049	175.262	0 -30.3438 0 -0	64.1647	-0	0 -18.964 0 8.27897e-016	3.6611e-015	-52.8143	0 -9.48199 0 1.22245	4.37968	-2.58917e-014	0 -3.17138 0 -0	7.12502	-0	0 -9.48199 0 25	15	-1.36605e-015	0.0883157 12.5016 0.82912 15	0	-0	-20.61 4.45 1.44 -26.411	-13.3401	-161.711	0 -29.5102 0 -0	73.7804	-0	0 -19.2342 0 1.21188e-015	-3.94185e-015	124.179	0 -9.61712 0 1.22	4.38	-0	0 -3.29215 0 -0	7.12502	-0	0 -9.61712 0 25	15	-7.97034e-015	-8.46272 -9.62775 4.76248 12.4585	-48.3539	2.55184	1.00552e-005 -38.0331 0 -0	67.4343	-0	1.14428e-005 -43.2815 0 -84.0343	-71.0487	-84.3562	0 -14.1868 -3.08763 -0	-25.2978	-0	9.10607 -9.62778 4.76249 21.8033	-44.157	20.4045	-1.01399e-005 -38.3535 0 -180	66.9082	180	-1.12937e-005 -42.7176 0 -50.4631	-81.7794	-50.7535	0 -13.9965 -2.83857 -0	-46.2531	-0
8.2484	87.9856	66.3729	-1.22867	7.53169	-2.41552	0 0 0 6.33443	16.6233	-3.64015	-0.214371 12.3768 -1.12219 -0.559455	15.9394	-4.66581	-0.00137213 12.3873 0.296195 -4.26889	7.5935	-1.85715	0.0883157 12.5016 0.82912 -0.674639	8.96442	0.0740206	-1 10.1794 0.943522 4.41729	-4.98022	0.323766	0.667525 10.2797 -1.57149 1.54099	-3.20772	-0.00968006	0.0883157 12.5016 0.82912 -15	0	-0	20.61 4.45006 1.43784 35.3861	-62.08	174.87	0 -30.3438 0 -0	64.0857	-0	0 -18.964 0 8.31958e-016	3.65574e-015	-52.8779	0 -9.48199 0 1.22245	4.37968	-2.58917e-014	0 -3.17138 0 -0	7.12502	-0	0 -9.48199 0 25	15	-1.36605e-015	0.0883157 12.5016 0.82912 15	0	-0	-20.61 4.45 1.44 -26.5402	-13.1246	-161.588	0 -29.5102 0 -0	73.7674	-0	0 -19.2342 0 1.20989e-015	-3.93891e-015	124.15	0 -9.61712 0 1.22	4.38	-0	0 -3.29215 0 -0	7.12502	-0	0 -9.61712 0 25	15	-7.97034e-015	-8.46272 -9.62775 4.76248 12.4247	-47.3201	2.11557	1.00552e-005 -38.0331 0 -0	67.4799	-0	1.14428e-005 -43.2815 0 -85.5026	-71.2238	-85.7417	0 -14.1868 -3.08763 -0	-25.529	-0	9.10607 -9.62778 4.76249 22.8802	-45.3564	21.0274	-1.01399e-005 -38.3535 0 -180	66.4629	180	-1.12937e-005 -42.7176 0 -52.1833	-81.6499	-52.4788	0 -13.9965 -2.83857 -0	-46.006	-0
8.17186	87.9529	66.7941	-1.43437	6.89954	-2.42153	0 0 0 6.43666	16.6096	-3.60391	-0.214371 12.3768 -1.12219 -0.530677	16.0302	-4.62116	-0.00137213 12.3873 0.296195 -4.30777	7.71129	-1.82324	0.0883157 12.5016 0.82912 -0.727594	9.05319	0.0404821	-1 10.1794 0.943522 4.40426	-4.49179	0.254152	0.667525 10.2797 -1.57149 1.54574	-3.05153	-0.0379358	0.0883157 12.5016 0.82912 -15	0	-0	20.61 4.45006 1.43784 34.9819	-61.8188	174.505	0 -30.3438 0 -0	64.0157	-0	0 -18.964 0 8.34458e-016	3.65244e-015	-52.9171	0 -9.48199 0 1.22245	4.37968	-2.58917e-014	0 -3.17138 0 -0	7.12502	-0	0 -9.48199 0 25	15	-1.36605e-015	0.0883157 12.5016 0.82912 15	0	-0	-20.61 4.45 1.44 -26.6739	-12.9194	-161.431	0 -29.5102 0 -0	73.7214	-0	0 -19.2342 0 1.2083e-015	-3.93658e-015	124.127	0 -9.61712 0 1.22	4.38	-0	0 -3.29215 0 -0	7.12502	-0	0 -9.61712 0 25	15	-7.97034e-015	-8.46272 -9.62775 4.76248 12.4003	-46.2766	1.69876	1.00552e-005 -38.0331 0 -0	67.5322	-0	1.14428e-005 -43.2815 0 -87.0182	-71.4015	-87.1743	0 -14.1868 -3.08763 -0	-25.7609	-0	9.10607 -9.62778 4.76249 23.8303	-46.4971	21.572	-1.01399e-005 -38.3535 0 -180	66.2024	180	-1.12937e-005 -42.7176 0 -53.6034	-81.5526	-53.9016	0 -13.9965 -2.83857 -0	-45.7779	-0
8.09952	87.9184	67.2292	-1.63288	6.26409	-2.4498	0 0 0 6.52415	16.572	-3.56505	-0.214371 12.3768 -1.12219 -0.506457	16.1127	-4.57568	-0.00137213 12.3873 0.296195 -4.34434	7.8326	-1.78976	0.0883157 12.5016 0.82912 -0.772413	9.13614	0.0106782	-1 10.1794 0.943522 4.38667	-3.97307	0.188955	0.667525 10.2797 -1.57149 1.54624	-2.88647	-0.0639894	0.0883157 12.5016 0.82912 -15	0	-0	20.61 4.45006 1.43784 34.6339	-61.5251	174.171	0 -30.3438 0 -0	63.951	-0	0 -18.964 0 8.35159e-016	3.65151e-015	-52.9281	0 -9.48199 0 1.22245	4.37968	-2.58917e-014	0 -3.17138 0 -0	7.12502	-0	0 -9.48199 0 25	15	-1.36605e-015	0.0883157 12.5016 0.82912 15	0	-0	-20.61 4.45 1.44 -26.8099	-12.7231	-161.242	0 -29.5102 0 -0	73.6463	-0	0 -19.2342 0 1.207e-015	-3.93465e-015	124.108	0 -9.61712 0 1.22	4.38	-0	0 -3.29215 0 -0	7.12502	-0	0 -9.61712 0 25	15	-7.97034e-015	-8.46272 -9.62775 4.76248 12.3908	-45.2234	1.30856	1.00552e-005 -38.0331 0 -0	67.5888	-0	1.14428e-005 -43.2815 0 -88.5758	-71.5681	-88.6495	0 -14.1868 -3.08763 -0	-25.9935	-0	9.10607 -9.62778 4.76249 24.6448	-47.579	22.0258	-1.01399e-005 -38.3535 0 -180	66.1146	180	-1.12937e-005 -42.7176 0 -54.7207	-81.4975	-55.0188	0 -13.9965 -2.83857 -0	-45.5782	-0
